<svg width="127" height="19" viewBox="0 0 127 19" fill="none" xmlns="http://www.w3.org/2000/svg">
<g id="Texto">
<g id="AluraGeek">
<path d="M79.0806 16.5C77.664 17.9167 76.0141 18.625 74.1309 18.625C72.9643 18.625 71.8644 18.3917 70.8311 17.925C69.8145 17.4584 68.9229 16.8167 68.1562 16C67.4063 15.1834 66.8063 14.225 66.3563 13.125C65.923 12.0084 65.7064 10.8084 65.7064 9.52503C65.7064 8.30837 65.923 7.1667 66.3563 6.10003C66.8063 5.0167 67.4146 4.07503 68.1812 3.27503C68.9645 2.45836 69.8811 1.8167 70.9311 1.35003C71.981 0.866697 73.1226 0.62503 74.3559 0.62503C76.0225 0.62503 77.4474 0.97503 78.6307 1.67503C79.8306 2.37503 80.7305 3.3167 81.3305 4.50003L78.7556 6.40003C78.3057 5.5167 77.6724 4.8417 76.8558 4.37503C76.0558 3.90836 75.1809 3.67503 74.2309 3.67503C73.4809 3.67503 72.7893 3.83336 72.156 4.15003C71.5394 4.4667 71.0061 4.90003 70.5561 5.45003C70.1228 6.00003 69.7812 6.63337 69.5312 7.35003C69.2978 8.0667 69.1812 8.82503 69.1812 9.62503C69.1812 10.4584 69.3145 11.2417 69.5812 11.975C69.8478 12.6917 70.2145 13.3167 70.6811 13.85C71.1477 14.3834 71.6977 14.8084 72.331 15.125C72.981 15.425 73.6809 15.575 74.4309 15.575C76.1475 15.575 77.6974 14.7667 79.0806 13.15V11.9H75.5058V9.37503H81.9305V18.5H79.0806V16.5Z" fill="#464646"/>
<path d="M90.6202 18.75C89.5703 18.75 88.6203 18.575 87.7704 18.225C86.9204 17.8584 86.1955 17.3667 85.5955 16.75C84.9955 16.1334 84.5289 15.4167 84.1956 14.6C83.8789 13.7834 83.7206 12.925 83.7206 12.025C83.7206 11.0917 83.8789 10.2167 84.1956 9.40003C84.5122 8.5667 84.9705 7.8417 85.5705 7.22503C86.1705 6.5917 86.8954 6.0917 87.7454 5.72503C88.612 5.35836 89.5786 5.17503 90.6452 5.17503C91.7118 5.17503 92.6618 5.35836 93.4951 5.72503C94.345 6.0917 95.0616 6.58337 95.6449 7.20003C96.2449 7.8167 96.6949 8.53337 96.9949 9.35003C97.3115 10.1667 97.4698 11.0167 97.4698 11.9C97.4698 12.1167 97.4615 12.325 97.4448 12.525C97.4448 12.725 97.4282 12.8917 97.3948 13.025H87.2704C87.3204 13.5417 87.4454 14 87.6454 14.4C87.8454 14.8 88.1037 15.1417 88.4203 15.425C88.737 15.7084 89.0953 15.925 89.4953 16.075C89.8953 16.225 90.3119 16.3 90.7452 16.3C91.4118 16.3 92.0368 16.1417 92.6201 15.825C93.2201 15.4917 93.6284 15.0584 93.845 14.525L96.7199 15.325C96.2366 16.325 95.4616 17.15 94.395 17.8C93.3451 18.4334 92.0868 18.75 90.6202 18.75ZM94.02 10.85C93.9367 9.8667 93.57 9.08337 92.9201 8.50003C92.2868 7.90003 91.5118 7.60003 90.5952 7.60003C90.1452 7.60003 89.7203 7.68337 89.3203 7.85003C88.937 8.00003 88.5953 8.2167 88.2953 8.50003C87.9954 8.78337 87.7454 9.12503 87.5454 9.52503C87.3621 9.92503 87.2537 10.3667 87.2204 10.85H94.02Z" fill="#464646"/>
<path d="M105.585 18.75C104.535 18.75 103.585 18.575 102.735 18.225C101.885 17.8584 101.16 17.3667 100.56 16.75C99.9605 16.1334 99.4939 15.4167 99.1606 14.6C98.8439 13.7834 98.6856 12.925 98.6856 12.025C98.6856 11.0917 98.8439 10.2167 99.1606 9.40003C99.4772 8.5667 99.9355 7.8417 100.535 7.22503C101.135 6.5917 101.86 6.0917 102.71 5.72503C103.577 5.35836 104.544 5.17503 105.61 5.17503C106.677 5.17503 107.627 5.35836 108.46 5.72503C109.31 6.0917 110.027 6.58337 110.61 7.20003C111.21 7.8167 111.66 8.53337 111.96 9.35003C112.276 10.1667 112.435 11.0167 112.435 11.9C112.435 12.1167 112.426 12.325 112.41 12.525C112.41 12.725 112.393 12.8917 112.36 13.025H102.235C102.285 13.5417 102.41 14 102.61 14.4C102.81 14.8 103.069 15.1417 103.385 15.425C103.702 15.7084 104.06 15.925 104.46 16.075C104.86 16.225 105.277 16.3 105.71 16.3C106.377 16.3 107.002 16.1417 107.585 15.825C108.185 15.4917 108.593 15.0584 108.81 14.525L111.685 15.325C111.202 16.325 110.427 17.15 109.36 17.8C108.31 18.4334 107.052 18.75 105.585 18.75ZM108.985 10.85C108.902 9.8667 108.535 9.08337 107.885 8.50003C107.252 7.90003 106.477 7.60003 105.56 7.60003C105.11 7.60003 104.685 7.68337 104.285 7.85003C103.902 8.00003 103.56 8.2167 103.26 8.50003C102.96 8.78337 102.71 9.12503 102.51 9.52503C102.327 9.92503 102.219 10.3667 102.185 10.85H108.985Z" fill="#464646"/>
<path d="M123.425 18.5L119.625 12.825L117.825 14.6V18.5H114.476V0.250031H117.825V11.325L123.075 5.42503H126.65L121.775 10.975L127 18.5H123.425Z" fill="#464646"/>
</g>
<g id="AluraGeek_2">
<path d="M7.7718 0.75003H10.8216L17.5713 18.5H14.0215L12.3715 14.075H6.17189L4.54698 18.5H0.997185L7.7718 0.75003ZM11.7466 11.65L9.29672 4.67503L6.74686 11.65H11.7466Z" fill="#2A7AE4"/>
<path d="M19.168 0.250031H22.5178V14.3C22.5178 14.7834 22.6345 15.1584 22.8678 15.425C23.1011 15.6917 23.4345 15.825 23.8678 15.825C24.0678 15.825 24.2844 15.7917 24.5177 15.725C24.7677 15.6584 25.001 15.575 25.2177 15.475L25.6677 18.025C25.2177 18.2417 24.6927 18.4084 24.0928 18.525C23.4928 18.6417 22.9512 18.7 22.4678 18.7C21.4179 18.7 20.6013 18.425 20.018 17.875C19.4514 17.3084 19.168 16.5084 19.168 15.475V0.250031Z" fill="#2A7AE4"/>
<path d="M31.1269 18.75C29.777 18.75 28.7521 18.3167 28.0521 17.45C27.3521 16.5834 27.0022 15.3 27.0022 13.6V5.40003H30.352V12.875C30.352 14.8917 31.0769 15.9 32.5268 15.9C33.1768 15.9 33.8018 15.7084 34.4017 15.325C35.0184 14.925 35.5183 14.325 35.9017 13.525V5.40003H39.2515V14.65C39.2515 15 39.3098 15.25 39.4265 15.4C39.5598 15.55 39.7681 15.6334 40.0514 15.65V18.5C39.7181 18.5667 39.4348 18.6084 39.2015 18.625C38.9848 18.6417 38.7848 18.65 38.6015 18.65C38.0015 18.65 37.5099 18.5167 37.1266 18.25C36.7599 17.9667 36.5433 17.5834 36.4766 17.1L36.4016 16.05C35.8183 16.95 35.0684 17.625 34.1518 18.075C33.2351 18.525 32.2269 18.75 31.1269 18.75Z" fill="#2A7AE4"/>
<path d="M50.3799 8.30003C49.3633 8.3167 48.4551 8.5167 47.6551 8.90003C46.8551 9.2667 46.2802 9.82503 45.9302 10.575V18.5H42.5804V5.40003H45.6552V8.20003C45.8885 7.75003 46.1635 7.35003 46.4802 7.00003C46.7968 6.63337 47.1385 6.3167 47.5051 6.05003C47.8718 5.78337 48.2384 5.58337 48.605 5.45003C48.9884 5.30003 49.355 5.22503 49.705 5.22503C49.8883 5.22503 50.0216 5.22503 50.105 5.22503C50.205 5.22503 50.2966 5.23337 50.3799 5.25003V8.30003Z" fill="#2A7AE4"/>
<path d="M55.6517 18.75C55.0184 18.75 54.4268 18.65 53.8768 18.45C53.3268 18.2334 52.8519 17.9417 52.4519 17.575C52.0519 17.1917 51.7353 16.75 51.5019 16.25C51.2853 15.75 51.177 15.2 51.177 14.6C51.177 13.9834 51.3103 13.4167 51.5769 12.9C51.8603 12.3667 52.2436 11.9167 52.7269 11.55C53.2268 11.1834 53.8185 10.9 54.5018 10.7C55.1851 10.4834 55.935 10.375 56.7516 10.375C57.3349 10.375 57.9016 10.425 58.4516 10.525C59.0182 10.625 59.5182 10.7667 59.9515 10.95V10.2C59.9515 9.33337 59.7015 8.6667 59.2015 8.20003C58.7182 7.73336 57.9932 7.50003 57.0266 7.50003C56.3267 7.50003 55.6434 7.62503 54.9768 7.87503C54.3101 8.12503 53.6268 8.4917 52.9269 8.97503L51.9019 6.85003C53.5852 5.73336 55.4017 5.17503 57.3516 5.17503C59.2348 5.17503 60.6931 5.6417 61.7264 6.57503C62.7763 7.4917 63.3013 8.82503 63.3013 10.575V14.65C63.3013 15 63.3596 15.25 63.4763 15.4C63.6096 15.55 63.8179 15.6334 64.1012 15.65V18.5C63.5346 18.6167 63.043 18.675 62.6263 18.675C61.993 18.675 61.5014 18.5334 61.1514 18.25C60.8181 17.9667 60.6098 17.5917 60.5264 17.125L60.4514 16.4C59.8681 17.1667 59.1599 17.75 58.3266 18.15C57.4933 18.55 56.6017 18.75 55.6517 18.75ZM56.6017 16.3C57.1683 16.3 57.7016 16.2 58.2016 16C58.7182 15.8 59.1182 15.5334 59.4015 15.2C59.7682 14.9167 59.9515 14.6 59.9515 14.25V12.75C59.5515 12.6 59.1182 12.4834 58.6515 12.4C58.1849 12.3 57.7349 12.25 57.3016 12.25C56.435 12.25 55.7267 12.45 55.1767 12.85C54.6268 13.2334 54.3518 13.725 54.3518 14.325C54.3518 14.8917 54.5684 15.3667 55.0018 15.75C55.4351 16.1167 55.9684 16.3 56.6017 16.3Z" fill="#2A7AE4"/>
</g>
</g>
</svg>
